<svg width="128" height="128" viewBox="0 0 128 128" fill="none" xmlns="http://www.w3.org/2000/svg">
<path d="M11.5 40C11.5 24.2599 24.2599 11.5 40 11.5H88C103.74 11.5 116.5 24.2599 116.5 40V88C116.5 103.74 103.74 116.5 88 116.5H40C24.2599 116.5 11.5 103.74 11.5 88V40Z" fill="#339DFF"/>
<path d="M92.75 64C92.75 79.8782 79.8782 92.75 64 92.75C48.1218 92.75 35.25 79.8782 35.25 64C35.25 48.1218 48.1218 35.25 64 35.25C79.8782 35.25 92.75 48.1218 92.75 64Z" fill="white"/>
<path d="M70.75 63.875C70.75 67.672 67.672 70.75 63.875 70.75C60.078 70.75 57 67.672 57 63.875C57 60.078 60.078 57 63.875 57C67.672 57 70.75 60.078 70.75 63.875Z" fill="#339DFF"/>
<path d="M64.25 71.6C64.25 67.4026 67.6526 64 71.85 64H88.65C92.8474 64 96.25 67.4026 96.25 71.6V88.4C96.25 92.5974 92.8474 96 88.65 96H71.85C67.6526 96 64.25 92.5974 64.25 88.4V71.6Z" fill="#0085FF"/>
<path d="M90.35 93.1667H86.0094V81.2322C86.0094 80.6663 85.8647 80.2391 85.5754 79.9505C85.286 79.6509 84.852 79.5011 84.2732 79.5011H76.4435V75.1734H84.2732C84.685 75.1734 85.1191 75.2234 85.5754 75.3232C86.0317 75.412 86.4824 75.5563 86.9276 75.756C87.3839 75.9557 87.818 76.2165 88.2298 76.5383C88.6416 76.849 89.0033 77.2319 89.3149 77.6868C89.6266 78.1307 89.877 78.6467 90.0662 79.2348C90.2554 79.8229 90.35 80.4887 90.35 81.2322V93.1667ZM74.6906 93.1667H70.35V67.5667H74.6906V93.1667Z" fill="white"/>
</svg>
