<svg width="16" height="16" viewBox="0 0 16 16" fill="none" xmlns="http://www.w3.org/2000/svg">
<path d="M1.4375 5C1.4375 3.03249 3.03249 1.4375 5 1.4375H11C12.9675 1.4375 14.5625 3.03249 14.5625 5V11C14.5625 12.9675 12.9675 14.5625 11 14.5625H5C3.03249 14.5625 1.4375 12.9675 1.4375 11V5Z" fill="#339DFF"/>
<path d="M11.5938 8C11.5938 9.98477 9.98477 11.5938 8 11.5938C6.01523 11.5938 4.40625 9.98477 4.40625 8C4.40625 6.01523 6.01523 4.40625 8 4.40625C9.98477 4.40625 11.5938 6.01523 11.5938 8Z" fill="white"/>
<path d="M8.84375 7.98438C8.84375 8.45899 8.45899 8.84375 7.98438 8.84375C7.50976 8.84375 7.125 8.45899 7.125 7.98438C7.125 7.50976 7.50976 7.125 7.98438 7.125C8.45899 7.125 8.84375 7.50976 8.84375 7.98438Z" fill="#339DFF"/>
<path d="M8.03125 8.95C8.03125 8.42533 8.45658 8 8.98125 8H11.0813C11.6059 8 12.0312 8.42533 12.0312 8.95V11.05C12.0312 11.5747 11.6059 12 11.0813 12H8.98125C8.45658 12 8.03125 11.5747 8.03125 11.05V8.95Z" fill="#0085FF"/>
<path d="M11.2938 11.6458H10.7512V10.154C10.7512 10.0833 10.7331 10.0299 10.6969 9.99382C10.6608 9.95637 10.6065 9.93764 10.5342 9.93764H9.55544V9.39668H10.5342C10.5856 9.39668 10.6399 9.40292 10.6969 9.4154C10.754 9.4265 10.8103 9.44453 10.866 9.4695C10.923 9.49447 10.9773 9.52706 11.0287 9.56729C11.0802 9.60613 11.1254 9.65398 11.1644 9.71085C11.2033 9.76634 11.2346 9.83084 11.2583 9.90435C11.2819 9.97787 11.2938 10.0611 11.2938 10.154V11.6458ZM9.33632 11.6458H8.79375V8.44583H9.33632V11.6458Z" fill="white"/>
</svg>
