<svg width="24" height="24" viewBox="0 0 24 24" fill="none" xmlns="http://www.w3.org/2000/svg">
<path d="M2.15625 7.5C2.15625 4.54873 4.54873 2.15625 7.5 2.15625H16.5C19.4513 2.15625 21.8438 4.54873 21.8438 7.5V16.5C21.8438 19.4513 19.4513 21.8438 16.5 21.8438H7.5C4.54873 21.8438 2.15625 19.4513 2.15625 16.5V7.5Z" fill="#339DFF"/>
<path d="M17.3906 12C17.3906 14.9772 14.9772 17.3906 12 17.3906C9.02284 17.3906 6.60938 14.9772 6.60938 12C6.60938 9.02284 9.02284 6.60938 12 6.60938C14.9772 6.60938 17.3906 9.02284 17.3906 12Z" fill="white"/>
<path d="M13.2656 11.9766C13.2656 12.6885 12.6885 13.2656 11.9766 13.2656C11.2646 13.2656 10.6875 12.6885 10.6875 11.9766C10.6875 11.2646 11.2646 10.6875 11.9766 10.6875C12.6885 10.6875 13.2656 11.2646 13.2656 11.9766Z" fill="#339DFF"/>
<path d="M12.0469 13.425C12.0469 12.638 12.6849 12 13.4719 12H16.6219C17.4089 12 18.0469 12.638 18.0469 13.425V16.575C18.0469 17.362 17.4089 18 16.6219 18H13.4719C12.6849 18 12.0469 17.362 12.0469 16.575V13.425Z" fill="#0085FF"/>
<path d="M16.9406 17.4688H16.1268V15.231C16.1268 15.1249 16.0996 15.0448 16.0454 14.9907C15.9911 14.9346 15.9097 14.9065 15.8012 14.9065H14.3332V14.095H15.8012C15.8784 14.095 15.9598 14.1044 16.0454 14.1231C16.1309 14.1398 16.2155 14.1668 16.2989 14.2043C16.3845 14.2417 16.4659 14.2906 16.5431 14.3509C16.6203 14.4092 16.6881 14.481 16.7466 14.5663C16.805 14.6495 16.8519 14.7463 16.8874 14.8565C16.9229 14.9668 16.9406 15.0916 16.9406 15.231V17.4688ZM14.0045 17.4688H13.1906V12.6687H14.0045V17.4688Z" fill="white"/>
</svg>
