<svg width="32" height="32" viewBox="0 0 32 32" fill="none" xmlns="http://www.w3.org/2000/svg">
<path d="M2.875 10C2.875 6.06497 6.06497 2.875 10 2.875H22C25.935 2.875 29.125 6.06497 29.125 10V22C29.125 25.935 25.935 29.125 22 29.125H10C6.06497 29.125 2.875 25.935 2.875 22V10Z" fill="#339DFF"/>
<path d="M23.1875 16C23.1875 19.9695 19.9695 23.1875 16 23.1875C12.0305 23.1875 8.8125 19.9695 8.8125 16C8.8125 12.0305 12.0305 8.8125 16 8.8125C19.9695 8.8125 23.1875 12.0305 23.1875 16Z" fill="white"/>
<path d="M17.6875 15.9688C17.6875 16.918 16.918 17.6875 15.9688 17.6875C15.0195 17.6875 14.25 16.918 14.25 15.9688C14.25 15.0195 15.0195 14.25 15.9688 14.25C16.918 14.25 17.6875 15.0195 17.6875 15.9688Z" fill="#339DFF"/>
<path d="M16.0625 17.9C16.0625 16.8507 16.9132 16 17.9625 16H22.1625C23.2118 16 24.0625 16.8507 24.0625 17.9V22.1C24.0625 23.1493 23.2118 24 22.1625 24H17.9625C16.9132 24 16.0625 23.1493 16.0625 22.1V17.9Z" fill="#0085FF"/>
<path d="M22.5875 23.2917H21.5024V20.3081C21.5024 20.1666 21.4662 20.0598 21.3938 19.9876C21.3215 19.9127 21.213 19.8753 21.0683 19.8753H19.1109V18.7934H21.0683C21.1713 18.7934 21.2798 18.8058 21.3938 18.8308C21.5079 18.853 21.6206 18.8891 21.7319 18.939C21.846 18.9889 21.9545 19.0541 22.0574 19.1346C22.1604 19.2123 22.2508 19.308 22.3287 19.4217C22.4066 19.5327 22.4692 19.6617 22.5165 19.8087C22.5638 19.9557 22.5875 20.1222 22.5875 20.3081V23.2917ZM18.6726 23.2917H17.5875V16.8917H18.6726V23.2917Z" fill="white"/>
</svg>
