<svg width="48" height="48" viewBox="0 0 48 48" fill="none" xmlns="http://www.w3.org/2000/svg">
<path d="M4.3125 15C4.3125 9.09746 9.09746 4.3125 15 4.3125H33C38.9025 4.3125 43.6875 9.09746 43.6875 15V33C43.6875 38.9025 38.9025 43.6875 33 43.6875H15C9.09746 43.6875 4.3125 38.9025 4.3125 33V15Z" fill="#339DFF"/>
<path d="M34.7812 24C34.7812 29.9543 29.9543 34.7812 24 34.7812C18.0457 34.7812 13.2188 29.9543 13.2188 24C13.2188 18.0457 18.0457 13.2188 24 13.2188C29.9543 13.2188 34.7812 18.0457 34.7812 24Z" fill="white"/>
<path d="M26.5312 23.9531C26.5312 25.377 25.377 26.5312 23.9531 26.5312C22.5293 26.5312 21.375 25.377 21.375 23.9531C21.375 22.5293 22.5293 21.375 23.9531 21.375C25.377 21.375 26.5312 22.5293 26.5312 23.9531Z" fill="#339DFF"/>
<path d="M24.0938 26.85C24.0938 25.276 25.3697 24 26.9437 24H33.2438C34.8178 24 36.0938 25.276 36.0938 26.85V33.15C36.0938 34.724 34.8178 36 33.2438 36H26.9437C25.3697 36 24.0938 34.724 24.0938 33.15V26.85Z" fill="#0085FF"/>
<path d="M33.8813 34.9375H32.2535V30.4621C32.2535 30.2499 32.1993 30.0896 32.0908 29.9815C31.9823 29.8691 31.8195 29.8129 31.6025 29.8129H28.6663V28.19H31.6025C31.7569 28.19 31.9196 28.2088 32.0908 28.2462C32.2619 28.2795 32.4309 28.3336 32.5979 28.4085C32.769 28.4834 32.9318 28.5812 33.0862 28.7019C33.2406 28.8184 33.3762 28.9619 33.4931 29.1326C33.61 29.299 33.7039 29.4925 33.7748 29.7131C33.8458 29.9336 33.8813 30.1833 33.8813 30.4621V34.9375ZM28.009 34.9375H26.3812V25.3375H28.009V34.9375Z" fill="white"/>
</svg>
