<svg width="64" height="64" viewBox="0 0 64 64" fill="none" xmlns="http://www.w3.org/2000/svg">
<path d="M5.75 20C5.75 12.1299 12.1299 5.75 20 5.75H44C51.8701 5.75 58.25 12.1299 58.25 20V44C58.25 51.8701 51.8701 58.25 44 58.25H20C12.1299 58.25 5.75 51.8701 5.75 44V20Z" fill="#339DFF"/>
<path d="M46.375 32C46.375 39.9391 39.9391 46.375 32 46.375C24.0609 46.375 17.625 39.9391 17.625 32C17.625 24.0609 24.0609 17.625 32 17.625C39.9391 17.625 46.375 24.0609 46.375 32Z" fill="white"/>
<path d="M35.375 31.9375C35.375 33.836 33.836 35.375 31.9375 35.375C30.039 35.375 28.5 33.836 28.5 31.9375C28.5 30.039 30.039 28.5 31.9375 28.5C33.836 28.5 35.375 30.039 35.375 31.9375Z" fill="#339DFF"/>
<path d="M32.125 35.8C32.125 33.7013 33.8263 32 35.925 32H44.325C46.4237 32 48.125 33.7013 48.125 35.8V44.2C48.125 46.2987 46.4237 48 44.325 48H35.925C33.8263 48 32.125 46.2987 32.125 44.2V35.8Z" fill="#0085FF"/>
<path d="M45.175 46.5833H43.0047V40.6161C43.0047 40.3331 42.9324 40.1195 42.7877 39.9753C42.643 39.8255 42.426 39.7506 42.1366 39.7506H38.2217V37.5867H42.1366C42.3425 37.5867 42.5595 37.6117 42.7877 37.6616C43.0158 37.706 43.2412 37.7781 43.4638 37.878C43.692 37.9779 43.909 38.1083 44.1149 38.2692C44.3208 38.4245 44.5017 38.6159 44.6575 38.8434C44.8133 39.0653 44.9385 39.3233 45.0331 39.6174C45.1277 39.9115 45.175 40.2444 45.175 40.6161V46.5833ZM37.3453 46.5833H35.175V33.7833H37.3453V46.5833Z" fill="white"/>
</svg>
